<svg xmlns="http://www.w3.org/2000/svg" version="1.1" width = "515" height = "515" viewBox = "-1 -1 514 514" preserveAspectRatio = "none" shape-rendering="crispEdges">
<rect x="0" y="0" width="512" height="512" style="fill:rgb(0,0,0);" />
<rect x="0" y="0" width="512" height="512" style="fill:rgb(229,229,229);" />
<g style="fill:rgb(0,127,0);">
 <rect x="0" y="0" width="20.898" height="31.3469"/>
 <rect x="20.898" y="0" width="10.449" height="20.898"/>
 <rect x="31.3469" y="0" width="480.653" height="10.449"/>
 <rect x="156.735" y="10.449" width="31.3469" height="20.898"/>
 <rect x="188.082" y="10.449" width="10.449" height="10.449"/>
 <rect x="208.98" y="10.449" width="31.347" height="10.449"/>
 <rect x="271.673" y="10.449" width="31.347" height="20.898"/>
 <rect x="303.02" y="10.449" width="10.449" height="10.449"/>
 <rect x="323.918" y="10.449" width="31.347" height="20.898"/>
 <rect x="355.265" y="10.449" width="10.449" height="10.449"/>
 <rect x="491.102" y="10.449" width="20.8979" height="20.898"/>
 <rect x="0" y="31.3469" width="10.449" height="480.653"/>
 <rect x="501.551" y="31.3469" width="10.449" height="10.449"/>
 <rect x="501.551" y="41.7959" width="10.449" height="10.449"/>
 <rect x="501.551" y="52.2449" width="10.449" height="10.449"/>
 <rect x="501.551" y="62.6939" width="10.449" height="10.449"/>
 <rect x="250.776" y="73.1429" width="20.8979" height="31.3469"/>
 <rect x="501.551" y="73.1429" width="10.449" height="10.449"/>
 <rect x="240.327" y="83.5918" width="31.3469" height="20.8979"/>
 <rect x="501.551" y="83.5918" width="10.449" height="10.449"/>
 <rect x="501.551" y="94.0408" width="10.449" height="10.449"/>
 <rect x="501.551" y="104.49" width="10.449" height="10.449"/>
 <rect x="501.551" y="114.939" width="10.449" height="10.449"/>
 <rect x="501.551" y="125.388" width="10.449" height="10.449"/>
 <rect x="501.551" y="135.837" width="10.449" height="10.449"/>
 <rect x="501.551" y="146.286" width="10.449" height="10.449"/>
 <rect x="10.449" y="156.735" width="20.898" height="31.3469"/>
 <rect x="156.735" y="156.735" width="31.3469" height="41.7959"/>
 <rect x="188.082" y="156.735" width="10.449" height="31.3469"/>
 <rect x="323.918" y="156.735" width="31.347" height="41.7959"/>
 <rect x="355.265" y="156.735" width="10.449" height="31.3469"/>
 <rect x="491.102" y="156.735" width="20.8979" height="20.898"/>
 <rect x="491.102" y="177.633" width="20.8979" height="20.8979"/>
 <rect x="10.449" y="188.082" width="10.449" height="52.2449"/>
 <rect x="501.551" y="198.531" width="10.449" height="10.449"/>
 <rect x="501.551" y="208.98" width="10.449" height="10.449"/>
 <rect x="501.551" y="219.429" width="10.449" height="10.449"/>
 <rect x="501.551" y="229.878" width="10.449" height="10.449"/>
 <rect x="501.551" y="240.327" width="10.449" height="10.449"/>
 <rect x="501.551" y="250.776" width="10.449" height="10.449"/>
 <rect x="501.551" y="261.224" width="10.449" height="10.449"/>
 <rect x="10.449" y="271.673" width="10.449" height="41.7959"/>
 <rect x="501.551" y="271.673" width="10.449" height="10.449"/>
 <rect x="20.898" y="282.122" width="10.449" height="31.347"/>
 <rect x="501.551" y="282.122" width="10.449" height="10.449"/>
 <rect x="501.551" y="292.571" width="10.449" height="10.449"/>
 <rect x="501.551" y="303.02" width="10.449" height="10.449"/>
 <rect x="501.551" y="313.469" width="10.449" height="10.449"/>
 <rect x="10.449" y="323.918" width="20.898" height="31.347"/>
 <rect x="156.735" y="323.918" width="31.3469" height="41.7959"/>
 <rect x="188.082" y="323.918" width="10.449" height="31.347"/>
 <rect x="323.918" y="323.918" width="31.347" height="41.7959"/>
 <rect x="355.265" y="323.918" width="10.449" height="31.347"/>
 <rect x="491.102" y="323.918" width="20.8979" height="20.898"/>
 <rect x="491.102" y="344.816" width="20.8979" height="20.8979"/>
 <rect x="10.449" y="355.265" width="10.449" height="10.449"/>
 <rect x="501.551" y="365.714" width="10.449" height="10.449"/>
 <rect x="501.551" y="376.163" width="10.449" height="10.449"/>
 <rect x="501.551" y="386.612" width="10.449" height="10.449"/>
 <rect x="501.551" y="397.061" width="10.449" height="10.449"/>
 <rect x="501.551" y="407.51" width="10.449" height="10.449"/>
 <rect x="501.551" y="417.959" width="10.449" height="10.449"/>
 <rect x="501.551" y="428.408" width="10.449" height="10.449"/>
 <rect x="501.551" y="438.857" width="10.449" height="10.449"/>
 <rect x="501.551" y="449.306" width="10.449" height="10.449"/>
 <rect x="501.551" y="459.755" width="10.449" height="10.449"/>
 <rect x="501.551" y="470.204" width="10.449" height="10.449"/>
 <rect x="208.98" y="480.653" width="31.347" height="31.3469"/>
 <rect x="271.673" y="480.653" width="31.347" height="31.3469"/>
 <rect x="501.551" y="480.653" width="10.449" height="10.449"/>
 <rect x="10.449" y="491.102" width="20.898" height="20.8979"/>
 <rect x="156.735" y="491.102" width="20.898" height="20.8979"/>
 <rect x="177.633" y="491.102" width="20.8979" height="20.8979"/>
 <rect x="240.327" y="491.102" width="10.449" height="20.8979"/>
 <rect x="303.02" y="491.102" width="10.449" height="20.8979"/>
 <rect x="323.918" y="491.102" width="20.898" height="20.8979"/>
 <rect x="344.816" y="491.102" width="20.8979" height="20.8979"/>
 <rect x="491.102" y="491.102" width="20.8979" height="20.8979"/>
 <rect x="31.3469" y="501.551" width="10.449" height="10.449"/>
 <rect x="41.7959" y="501.551" width="10.449" height="10.449"/>
 <rect x="52.2449" y="501.551" width="10.449" height="10.449"/>
 <rect x="62.6939" y="501.551" width="10.449" height="10.449"/>
 <rect x="73.1429" y="501.551" width="10.449" height="10.449"/>
 <rect x="83.5918" y="501.551" width="10.449" height="10.449"/>
 <rect x="94.0408" y="501.551" width="10.449" height="10.449"/>
 <rect x="104.49" y="501.551" width="10.449" height="10.449"/>
 <rect x="114.939" y="501.551" width="10.449" height="10.449"/>
 <rect x="125.388" y="501.551" width="10.449" height="10.449"/>
 <rect x="135.837" y="501.551" width="10.449" height="10.449"/>
 <rect x="146.286" y="501.551" width="10.449" height="10.449"/>
 <rect x="198.531" y="501.551" width="10.449" height="10.449"/>
 <rect x="250.776" y="501.551" width="10.449" height="10.449"/>
 <rect x="261.224" y="501.551" width="10.449" height="10.449"/>
 <rect x="313.469" y="501.551" width="10.449" height="10.449"/>
 <rect x="365.714" y="501.551" width="10.449" height="10.449"/>
 <rect x="376.163" y="501.551" width="10.449" height="10.449"/>
 <rect x="386.612" y="501.551" width="10.449" height="10.449"/>
 <rect x="397.061" y="501.551" width="10.449" height="10.449"/>
 <rect x="407.51" y="501.551" width="10.449" height="10.449"/>
 <rect x="417.959" y="501.551" width="10.449" height="10.449"/>
 <rect x="428.408" y="501.551" width="10.449" height="10.449"/>
 <rect x="438.857" y="501.551" width="10.449" height="10.449"/>
 <rect x="449.306" y="501.551" width="10.449" height="10.449"/>
 <rect x="459.755" y="501.551" width="10.449" height="10.449"/>
 <rect x="470.204" y="501.551" width="10.449" height="10.449"/>
 <rect x="480.653" y="501.551" width="10.449" height="10.449"/>
</g>

</svg>